<?xml version="1.0" standalone="no"?>
<!DOCTYPE svg PUBLIC "-//W3C//DTD SVG 20010904//EN"
 "http://www.w3.org/TR/2001/REC-SVG-20010904/DTD/svg10.dtd">
<svg version="1.0" xmlns="http://www.w3.org/2000/svg"
 width="50.000000pt" height="50.000000pt" viewBox="0 0 657.000000 635.000000"
 preserveAspectRatio="xMidYMid meet">

<g transform="translate(0.000000,635.000000) scale(0.100000,-0.100000)"
fill="#fff" stroke="none">
<path d="M3156 6324 c-14 -13 -16 -58 -16 -342 0 -180 4 -332 8 -338 22 -33
42 -34 1181 -34 l1131 0 2 -656 3 -656 24 -19 c22 -18 46 -19 525 -19 438 0
504 2 524 16 l22 15 0 1005 c0 674 -3 1012 -10 1025 -11 19 -40 19 -1695 19
-1517 0 -1685 -2 -1699 -16z"/>
<path d="M27 5432 c-16 -17 -17 -92 -17 -879 l0 -860 21 -19 c20 -18 46 -19
518 -22 273 -1 506 0 518 3 56 14 53 -39 53 900 0 772 -2 865 -16 879 -14 14
-76 16 -538 16 -494 0 -524 -1 -539 -18z"/>
<path d="M1563 3954 l-1553 -1495 0 -1208 c0 -1157 1 -1209 18 -1224 17 -15
69 -17 539 -17 491 0 521 1 536 18 16 17 17 99 18 968 0 522 3 957 7 966 8 19
618 468 637 468 7 0 22 -8 33 -17 11 -10 437 -555 946 -1210 l927 -1193 572 0
c479 0 576 2 593 14 17 13 19 30 22 168 l3 154 -53 75 c-30 40 -518 702 -1084
1469 -567 767 -1038 1407 -1047 1421 -12 17 -15 33 -10 47 5 11 334 338 733
727 399 388 773 755 833 814 l107 108 0 199 c0 164 -3 203 -16 222 l-15 22
-597 0 -597 0 -1552 -1496z"/>
<path d="M5484 4086 c-19 -14 -19 -39 -22 -1142 -2 -808 -5 -1131 -13 -1141
-6 -7 -24 -13 -40 -13 -25 0 -140 127 -975 1070 -572 646 -957 1073 -970 1076
-12 3 -29 2 -38 -3 -8 -4 -152 -133 -320 -286 -263 -239 -306 -283 -306 -307
0 -21 55 -99 233 -327 127 -164 690 -907 1251 -1651 l1018 -1352 613 0 c545 0
615 2 629 16 14 14 16 212 16 2029 0 1817 -2 2015 -16 2029 -14 14 -75 16
-528 16 -427 0 -515 -2 -532 -14z"/>
</g>
</svg>
